<svg xmlns="http://www.w3.org/2000/svg" version="1.1" xmlns:xlink="http://www.w3.org/1999/xlink" xmlns:svgjs="http://svgjs.dev/svgjs" width="100%" height="100%" viewBox="0 0 1000 600"><rect width="1000" height="600" x="0" y="0" fill="#96351e"/><g><rect width="333.3333333333333" height="333.3333333333333" rx="13.333333333333334" ry="13.333333333333334" y="112.94754101136374" fill="#dbb98f" transform="matrix(1.3777857610416275,0,0,1.3777857610416273,0,-85.24843039739565)" x="90.72530364990234"/><path d="M297.0409269267636 251.32197735794395L289.66901052494813 251.32197735794395Q289.0428245757592 241.50224315475347 284.9441529083406 232.67871387072728Q280.8454812409219 223.88364758439147 273.0466198737504 218.33336303476207Q265.27622150426924 212.8115414828231 253.1794474858462 212.8115414828231L253.1794474858462 212.8115414828231Q240.4849505159246 212.8115414828231 233.7107570656077 219.9842169008057Q226.93656361529082 227.1568923187883 226.93656361529082 236.77738553814592L226.93656361529082 236.77738553814592Q226.93656361529082 245.4016738383393 231.86066221573125 251.23658836487274Q236.78476081617168 257.0715028914062 244.66901117641447 261.4832675334193Q252.55326153665723 265.89503217543245 261.3767908206835 269.993703842851L261.3767908206835 269.993703842851Q269.175652187855 273.4661895610807 276.94605055733615 277.4510092377377Q284.74491192450773 281.4642919120852 291.0921604094685 286.5876314963584Q297.4394088944293 291.7109710806317 301.22498758725345 298.7697945078527Q305.039029277768 305.857080932764 305.039029277768 315.6768151359544L305.039029277768 315.6768151359544Q305.039029277768 326.94816222135574 299.4033557350674 335.77169150538197Q293.7676821923668 344.56675779171775 283.0940580584641 349.6047083829198Q272.44889692225183 354.6141959764314 257.07887816943196 354.6141959764314L257.07887816943196 354.6141959764314Q247.85686691774006 354.6141959764314 238.00866971685917 351.96713719122357Q228.18893551366872 349.2916154083253 220.58931513033002 344.16827582405205L220.58931513033002 344.16827582405205L221.6139830471847 352.99180510807827L210.9688219109724 352.99180510807827L209.7449130102849 309.3295666509937L217.7145523635989 309.3295666509937Q218.73922028045357 327.3751071867118 230.23827134737803 336.6825074314749Q241.7088594166121 346.0183706739285 257.9043051024538 346.0183706739285L257.9043051024538 346.0183706739285Q265.87394445576774 346.0183706739285 272.6481379060847 343.0297559164357Q279.42233135640157 340.0696041566334 283.40715103305854 334.3200786231711Q287.39197070971557 328.5990160873993 287.39197070971557 320.4016727525621L287.39197070971557 320.4016727525621Q287.39197070971557 311.1796615008702 282.49633510696555 305.0316539997423Q277.5722365065251 298.8836464986143 269.77337513935356 294.3580298658395Q262.0029767698724 289.86087623075525 253.1794474858462 285.7622045633366L253.1794474858462 285.7622045633366Q245.38058611867464 282.2897188451069 237.80942873302632 278.3902881615212Q230.23827134737803 274.4908574779354 223.97641185548846 269.48136988442366Q217.7145523635989 264.4434192932216 213.92897367077475 257.46998485907193Q210.1433949779506 250.52501342261255 210.1433949779506 240.67681622173168L210.1433949779506 240.67681622173168Q210.1433949779506 235.35423565362555 211.99348982782706 229.20622815249763Q213.84358467770352 223.05822065136968 218.45459030354948 217.42254710866908Q223.06559592939544 211.78687356596842 231.14908727347108 208.20053585697715Q239.2325786175467 204.61419814798586 251.75629760132585 204.61419814798586L251.75629760132585 204.61419814798586Q259.526695970807 204.61419814798586 269.2610411809262 206.74892297476637Q278.9953863910455 208.91211079923733 287.39197070971557 215.06011830036525L287.39197070971557 215.06011830036525L286.59500677438416 206.23658901633905L297.0409269267636 206.23658901633905L297.0409269267636 251.32197735794395Z " fill="#96351e" transform="matrix(1.3777857610416275,0,0,1.3777857610416273,0,-85.24843039739565)"/><path d="M629.9536375574532 253.59901717317652L622.5817211556379 253.59901717317652Q620.5323853219285 234.32956773677088 609.1471862457656 223.65594360286823Q597.7619871696028 213.01078246665594 579.9441506154079 213.01078246665594L579.9441506154079 213.01078246665594Q569.0712854976724 213.01078246665594 559.5646442690764 217.62178809250193Q550.02954004279 222.23279371834786 542.8568646248075 230.8286190208508Q535.6841892068248 239.4529073210442 531.5855175394063 251.54968133946718Q527.4868458719875 263.6179923601999 527.4868458719875 278.7887701291869L527.4868458719875 278.7887701291869Q527.4868458719875 298.0582195655925 534.858762273803 312.8020523692234Q542.2306786756185 327.5743481705446 554.7259346617072 335.77169150538197Q567.2496536454864 343.9690348402192 582.3919684167829 343.9690348402192L582.3919684167829 343.9690348402192Q595.7126513358935 343.9690348402192 608.6348522873383 337.90641633216245Q621.5570532387832 331.87226082179615 629.7543965736204 320.4016727525621L629.7543965736204 320.4016727525621L635.0769771417266 324.6995854038135Q626.2534478577003 336.79635942223655 616.0067686891538 343.3428488910302Q605.7600895206072 349.9178013575143 595.6272623428223 352.2517671681276Q585.465972167347 354.6141959764314 577.0693878486768 354.6141959764314L577.0693878486768 354.6141959764314Q561.699369095857 354.6141959764314 548.8910201351737 349.09237442449245Q536.0826711744905 343.54208987486305 526.7752709297274 333.6085036809109Q517.4394076872738 323.6749174869589 512.4299200937621 310.46808655861Q507.39196950256013 297.23279263257064 507.39196950256013 281.86277387975076L507.39196950256013 281.86277387975076Q507.39196950256013 267.31818205995273 511.80373414457324 253.59901717317652Q516.2154987865863 239.8513892887099 525.0105650729222 228.7792831871415Q533.8340943569483 217.73564008326355 547.2686292668205 211.16068761677948Q560.6747011790023 204.61419814798586 578.5210007308876 204.61419814798586L578.5210007308876 204.61419814798586Q589.9915888001217 204.61419814798586 600.2382679686682 207.6882018985498Q610.4849471372148 210.76220564911378 619.9061993727396 217.10945413407458L619.9061993727396 217.10945413407458L618.8815314558849 206.0373480325062L629.9536375574532 206.0373480325062L629.9536375574532 253.59901717317652Z " fill="#dbb98f" transform="matrix(1.3777857610416275,0,0,1.3777857610416273,0,-85.24843039739565)"/></g></svg>